<svg xmlns="http://www.w3.org/2000/svg" width="423.33mm" height="59.03mm" viewBox="0 0 1200 167.32"><defs><style>.a{fill:#fff;}.b{fill:#1c3a69;}</style></defs><title>title</title><path class="a" d="M31.52,99.83a9.33,9.33,0,0,1-2.32,2.54,6.51,6.51,0,0,1-3.63.8H3.47a3.07,3.07,0,0,1-2.25-.94,3.15,3.15,0,0,1-.51-3.85L34.28,51.44,2.17,6.25a3.61,3.61,0,0,1-.44-1.6A3.07,3.07,0,0,1,2.67,2.4a3.08,3.08,0,0,1,2.25-.94H26.87a5.74,5.74,0,0,1,3.7,1A14.25,14.25,0,0,1,33,5.09L50.55,29.64l17-24.56A14.08,14.08,0,0,1,70,2.47a5.73,5.73,0,0,1,3.7-1H95.89a3.08,3.08,0,0,1,2.25.94,3.08,3.08,0,0,1,.94,2.25,3.61,3.61,0,0,1-.44,1.6L66.39,52,99.67,98.37a3.2,3.2,0,0,1-2.76,4.8H74.82a6.5,6.5,0,0,1-3.63-.8,9.25,9.25,0,0,1-2.32-2.54L50.12,73.67Z"/><path class="a" d="M146.31,51.15v48.1a4,4,0,0,1-3.92,3.92h-19a4,4,0,0,1-3.92-3.92V5.38a3.77,3.77,0,0,1,1.16-2.76,3.77,3.77,0,0,1,2.76-1.16h16.86a6.83,6.83,0,0,1,6.25,3.92L170,45.63,193.54,5.38a6.82,6.82,0,0,1,6.25-3.92h16.86a3.78,3.78,0,0,1,2.76,1.16,3.78,3.78,0,0,1,1.16,2.76V99.24a4,4,0,0,1-3.92,3.92h-19a4,4,0,0,1-3.92-3.92V51.15L180,75.12a11,11,0,0,1-2.25,2.62,4.75,4.75,0,0,1-3.12,1h-9.3a4.74,4.74,0,0,1-3.12-1A10.89,10.89,0,0,1,160,75.12Z"/><path class="a" d="M340.15,97.79a6.64,6.64,0,0,1,.58,2.18,3.22,3.22,0,0,1-3.2,3.2H319.23a6.06,6.06,0,0,1-3.85-1.09,5.08,5.08,0,0,1-1.82-2.54l-4.07-12.06H270.84l-4.07,12.06a5.1,5.1,0,0,1-1.82,2.54,6.07,6.07,0,0,1-3.85,1.09H242.79a3.22,3.22,0,0,1-3.2-3.2,6.6,6.6,0,0,1,.58-2.18L271.86,6.25a8,8,0,0,1,2.32-3.41,6.22,6.22,0,0,1,4.21-1.38h23.54a6.22,6.22,0,0,1,4.21,1.38,8,8,0,0,1,2.33,3.41ZM301.93,65,290.16,30.08,278.39,65Z"/><path class="a" d="M437.43,30.88a2.92,2.92,0,0,1-2.11.94h-19a8.13,8.13,0,0,1-3.2-.51,10.22,10.22,0,0,1-2.62-1.82l-1.89-2a13.71,13.71,0,0,0-5-3,22.07,22.07,0,0,0-7.92-1.31,26.82,26.82,0,0,0-10.24,1.67,5.84,5.84,0,0,0-4,5.74,5.24,5.24,0,0,0,2.47,4.58,25.06,25.06,0,0,0,7.63,3q5.16,1.31,17.94,3.92,16.42,3.34,24.12,10.46t7.7,20.34a26.13,26.13,0,0,1-5.74,16.78q-5.74,7.19-16,11a65.54,65.54,0,0,1-23.17,3.85,57,57,0,0,1-22.67-4.36q-10.17-4.36-16-11.33t-6.1-14.39a3.07,3.07,0,0,1,.94-2.25,2.92,2.92,0,0,1,2.11-.94h19a8.12,8.12,0,0,1,5.52,2q.43.44,2.32,2.54a16.32,16.32,0,0,0,5.74,3.78,22.66,22.66,0,0,0,9.08,1.67q18,0,18-7.7a4.88,4.88,0,0,0-2.54-4.14,23.94,23.94,0,0,0-7.19-2.83q-4.65-1.16-14.82-3.34L383.31,62q-14.82-3.19-21.8-10.68t-7-20a26.5,26.5,0,0,1,5.08-15.62A35.06,35.06,0,0,1,374.08,4.29a55.4,55.4,0,0,1,43.08.15,42.62,42.62,0,0,1,15.33,11.12q5.59,6.69,5.89,13.08A3.08,3.08,0,0,1,437.43,30.88Z"/><path class="a" d="M509.58,51.29q0,9,.44,13.22A19.53,19.53,0,0,0,515,76.65q4.36,4.72,13.37,4.72,8.28,0,13.3-3.85t5-12.13H534.42a4,4,0,0,1-3.92-3.92V46.06a4,4,0,0,1,3.92-3.92h35.16a4,4,0,0,1,3.92,3.92v18.6a37.66,37.66,0,0,1-6,21.14,38.9,38.9,0,0,1-16.2,13.95,53,53,0,0,1-23,4.87q-13.51,0-23.54-5.3a39.54,39.54,0,0,1-15.55-14.24,41.27,41.27,0,0,1-6.1-19.83q-.29-7-.29-11.48,0-5.37.29-14.39a40.11,40.11,0,0,1,6-19.83A39.43,39.43,0,0,1,504.71,5.3Q514.81,0,528.32,0a52.13,52.13,0,0,1,22.89,4.8,42.37,42.37,0,0,1,15.55,12.06q5.59,7.27,6,14.09a2.56,2.56,0,0,1-.87,2.25,3.31,3.31,0,0,1-2.32.94H550.26a4.39,4.39,0,0,1-3-.94,29.74,29.74,0,0,1-2.83-3,20.12,20.12,0,0,0-6.18-5.09q-3.56-1.89-10-1.89Q511.9,23.25,510,40.1A100.87,100.87,0,0,0,509.58,51.29Z"/><path class="a" d="M598.36,102a3.76,3.76,0,0,1-1.16-2.76V5.38a3.77,3.77,0,0,1,1.16-2.76,3.78,3.78,0,0,1,2.76-1.16h19a3.78,3.78,0,0,1,2.76,1.16,3.78,3.78,0,0,1,1.16,2.76V99.24a4,4,0,0,1-3.92,3.92h-19A3.77,3.77,0,0,1,598.36,102Z"/><path class="a" d="M724.77,2.62a3.78,3.78,0,0,1,1.16,2.76v15.4A4,4,0,0,1,722,24.7H678.57V44.61h40.54A4,4,0,0,1,723,48.53v15.4a4,4,0,0,1-3.92,3.92H678.57V99.24a4,4,0,0,1-3.92,3.92h-19a4,4,0,0,1-3.92-3.92V5.38a3.77,3.77,0,0,1,1.16-2.76,3.78,3.78,0,0,1,2.76-1.16H722A3.78,3.78,0,0,1,724.77,2.62Z"/><path class="a" d="M826.05,2.62a3.78,3.78,0,0,1,1.16,2.76v15.4a4,4,0,0,1-3.92,3.92H797.72V99.24a4,4,0,0,1-3.92,3.92h-19a4,4,0,0,1-3.92-3.92V24.7H745.26a4,4,0,0,1-3.92-3.92V5.38a3.77,3.77,0,0,1,1.16-2.76,3.77,3.77,0,0,1,2.76-1.16h78A3.78,3.78,0,0,1,826.05,2.62Z"/><path class="a" d="M941.57,81.08a3.78,3.78,0,0,1,1.16,2.76v15.4a4,4,0,0,1-3.92,3.92H871.53a4,4,0,0,1-3.92-3.92V5.38a3.77,3.77,0,0,1,1.16-2.76,3.77,3.77,0,0,1,2.76-1.16h19a3.78,3.78,0,0,1,2.76,1.16,3.78,3.78,0,0,1,1.16,2.76V79.92h44.32A3.78,3.78,0,0,1,941.57,81.08Z"/><path class="a" d="M963.66,102a3.76,3.76,0,0,1-1.16-2.76V5.38a3.77,3.77,0,0,1,1.16-2.76,3.77,3.77,0,0,1,2.76-1.16h19a3.78,3.78,0,0,1,2.76,1.16,3.78,3.78,0,0,1,1.16,2.76V99.24a4,4,0,0,1-3.92,3.92h-19A3.76,3.76,0,0,1,963.66,102Z"/><path class="a" d="M1096.54,30.88a2.91,2.91,0,0,1-2.11.94h-19a8.12,8.12,0,0,1-3.2-.51,10.2,10.2,0,0,1-2.62-1.82l-1.89-2a13.73,13.73,0,0,0-5-3,22.06,22.06,0,0,0-7.92-1.31,26.83,26.83,0,0,0-10.24,1.67,5.84,5.84,0,0,0-4,5.74,5.24,5.24,0,0,0,2.47,4.58,25.07,25.07,0,0,0,7.63,3q5.16,1.31,17.95,3.92,16.42,3.34,24.12,10.46t7.7,20.34a26.12,26.12,0,0,1-5.74,16.78q-5.74,7.19-16,11a65.55,65.55,0,0,1-23.18,3.85,57,57,0,0,1-22.67-4.36q-10.17-4.36-16-11.33t-6.1-14.39a3.07,3.07,0,0,1,.94-2.25,2.92,2.92,0,0,1,2.11-.94h19a8.12,8.12,0,0,1,5.52,2q.44.44,2.32,2.54a16.33,16.33,0,0,0,5.74,3.78,22.67,22.67,0,0,0,9.08,1.67q18,0,18-7.7a4.88,4.88,0,0,0-2.54-4.14,24,24,0,0,0-7.19-2.83q-4.65-1.16-14.82-3.34L1042.41,62q-14.82-3.19-21.8-10.68t-7-20a26.5,26.5,0,0,1,5.09-15.62,35.05,35.05,0,0,1,14.46-11.48,55.4,55.4,0,0,1,43.08.15,42.61,42.61,0,0,1,15.33,11.12q5.59,6.69,5.89,13.08A3.07,3.07,0,0,1,1096.54,30.88Z"/><path class="a" d="M1198.62,2.62a3.78,3.78,0,0,1,1.16,2.76v15.4a4,4,0,0,1-3.92,3.92h-25.57V99.24a4,4,0,0,1-3.92,3.92h-19a4,4,0,0,1-3.92-3.92V24.7h-25.57a4,4,0,0,1-3.92-3.92V5.38a3.77,3.77,0,0,1,1.16-2.76,3.77,3.77,0,0,1,2.76-1.16h78A3.78,3.78,0,0,1,1198.62,2.62Z"/><path class="a" d="M560.2,166.8H535.39v-3.46l13.11-14.57a31.1,31.1,0,0,0,4-5.37,9,9,0,0,0,1.11-4.28,6.8,6.8,0,0,0-1.8-4.86,6.28,6.28,0,0,0-4.79-1.9,7.43,7.43,0,0,0-5.58,2,7.8,7.8,0,0,0-2,5.68h-4.81a11.17,11.17,0,0,1,3.37-8.45,12.49,12.49,0,0,1,9-3.23q5.28,0,8.35,2.77a9.45,9.45,0,0,1,3.07,7.38q0,5.59-7.13,13.32l-10.15,11h19Z"/><path class="a" d="M594.38,150.64q0,8.46-2.89,12.57t-9,4.11q-6.06,0-9-4t-3-12v-6.43q0-8.35,2.89-12.41t9.05-4.06q6.11,0,9,3.92t3,12.08Zm-4.81-6.58q0-6.11-1.72-8.91a5.91,5.91,0,0,0-5.44-2.8,5.83,5.83,0,0,0-5.39,2.78q-1.69,2.78-1.74,8.56v7.7q0,6.14,1.78,9.07a5.9,5.9,0,0,0,5.4,2.93,5.82,5.82,0,0,0,5.29-2.76q1.73-2.76,1.81-8.69Z"/><path class="a" d="M621.69,166.8h-4.84V134.72l-9.7,3.56v-4.37l13.79-5.18h.75Z"/><path class="a" d="M660,128.89V133h-.88a12.67,12.67,0,0,0-8.95,3.33q-3.33,3.23-3.85,9.08a10.27,10.27,0,0,1,8.17-3.43,9.82,9.82,0,0,1,7.9,3.49,13.45,13.45,0,0,1,3,9q0,5.85-3.19,9.37a11,11,0,0,1-8.55,3.51,10.81,10.81,0,0,1-8.82-4.18,16.55,16.55,0,0,1-3.38-10.76v-1.85q0-10.46,4.46-16t13.28-5.66ZM653.69,146a8.09,8.09,0,0,0-7.44,5.2v1.77a12.42,12.42,0,0,0,2.11,7.54,6.31,6.31,0,0,0,5.26,2.86,6.12,6.12,0,0,0,5.11-2.39,11.5,11.5,0,0,0,0-12.58A6,6,0,0,0,653.69,146Z"/><rect class="b" y="147.16" width="509.72" height="2.34"/><rect class="b" x="690.28" y="147.43" width="509.72" height="2.34"/></svg>